<?xml version="1.0" standalone="no"?>
<!DOCTYPE svg PUBLIC "-//W3C//DTD SVG 20010904//EN"
 "http://www.w3.org/TR/2001/REC-SVG-20010904/DTD/svg10.dtd">
<svg version="1.0" xmlns="http://www.w3.org/2000/svg"
 width="16.000000pt" height="16.000000pt" viewBox="0 0 16.000000 16.000000"
 preserveAspectRatio="xMidYMid meet">
<metadata>
Created by potrace 1.11, written by Peter Selinger 2001-2013
</metadata>
<g transform="translate(0.000000,16.000000) scale(0.002392,-0.002392)"
fill="#000000" stroke="none">
<path d="M3055 6258 c-38 -4 -99 -15 -135 -24 -117 -29 -351 -147 -420 -212
-14 -13 -43 -35 -65 -49 -99 -64 -249 -224 -323 -343 -59 -96 -89 -166 -134
-315 -49 -160 -81 -262 -88 -280 -23 -59 -69 -476 -64 -575 1 -14 4 -106 8
-205 7 -204 22 -335 42 -382 8 -17 14 -38 14 -46 0 -9 10 -28 23 -44 12 -15
44 -62 71 -103 27 -41 77 -102 111 -135 33 -33 67 -73 74 -90 14 -30 24 -51
40 -82 5 -10 28 -57 51 -105 23 -49 46 -88 51 -88 14 0 11 -50 -3 -51 -7 0 -3
-4 10 -9 44 -18 20 -25 -90 -25 -97 0 -119 -3 -153 -22 -58 -31 -129 -100
-165 -160 -26 -44 -32 -66 -40 -155 -5 -57 -9 -140 -10 -185 l0 -82 -59 -46
c-33 -25 -82 -56 -108 -70 -27 -13 -77 -53 -111 -89 -51 -53 -69 -65 -104 -71
-24 -4 -51 -14 -61 -23 -9 -8 -20 -13 -23 -9 -3 3 -67 -26 -141 -64 -75 -38
-142 -69 -150 -69 -8 0 -33 -9 -55 -20 -23 -11 -50 -20 -59 -20 -10 0 -21 -4
-24 -10 -3 -5 -17 -10 -30 -10 -13 0 -27 -4 -30 -10 -3 -5 -17 -10 -29 -10
-13 0 -29 -7 -36 -15 -7 -8 -20 -15 -29 -16 -9 0 -47 -18 -86 -39 -38 -22 -85
-47 -103 -56 -17 -9 -32 -20 -32 -24 0 -4 -9 -10 -20 -13 -11 -3 -23 -13 -27
-24 -4 -10 -15 -24 -25 -31 -10 -7 -18 -18 -18 -23 0 -6 -18 -32 -40 -58 -22
-26 -40 -52 -40 -59 0 -6 -8 -16 -18 -21 -12 -6 -27 -39 -41 -88 -12 -43 -39
-127 -60 -188 -67 -190 -92 -278 -112 -395 -5 -30 -18 -91 -28 -135 -22 -88
-29 -125 -36 -170 -3 -16 -10 -55 -16 -84 -7 -34 -8 -86 -4 -135 4 -45 6 -152
6 -239 l-2 -157 1055 0 c679 0 1057 3 1061 10 3 5 1 37 -5 71 -8 44 -8 64 0
74 8 10 8 19 -1 33 -10 16 -10 23 0 36 7 8 10 24 6 36 -4 13 0 31 10 46 11 17
14 35 10 58 -4 20 -2 36 4 40 6 4 11 16 11 27 0 10 5 19 11 19 5 0 8 4 5 8 -7
12 -18 184 -16 257 3 133 6 157 22 166 9 5 19 27 23 49 6 37 9 40 40 40 38 0
48 9 35 30 -5 8 -5 22 1 32 7 12 5 25 -5 41 -12 18 -13 31 -5 60 5 20 14 37
19 37 6 0 10 28 10 61 0 47 -4 65 -17 76 -14 11 -15 15 -5 20 10 4 5 14 -18
38 l-31 32 17 44 c24 64 23 133 -2 174 -11 19 -23 32 -26 29 -4 -3 -2 12 3 33
11 50 11 55 -3 47 -7 -4 -8 -3 -4 4 4 6 2 19 -3 29 -6 10 -17 49 -26 87 -14
59 -15 71 -2 83 11 12 22 12 61 2 53 -13 66 -7 48 21 -11 17 -10 20 8 20 28 0
25 11 -16 56 -19 21 -42 51 -50 66 -8 15 -22 32 -31 37 -16 9 -16 10 -1 11 34
0 174 -124 216 -192 21 -34 58 -58 90 -58 43 0 88 -21 100 -47 6 -15 12 -33
12 -40 0 -7 7 -13 15 -13 17 0 16 1 21 -89 1 -35 7 -68 13 -74 8 -8 11 -6 11
6 0 26 91 24 108 -3 27 -43 159 -80 178 -49 3 6 17 9 30 6 17 -3 24 0 24 12 1
41 44 67 113 69 46 2 47 1 47 -29 0 -19 -10 -43 -25 -61 -48 -57 -27 -65 28
-12 21 20 40 35 43 32 13 -14 21 -129 17 -270 -2 -117 0 -158 8 -158 7 0 5 -8
-5 -19 -12 -13 -14 -21 -6 -26 6 -4 10 -14 8 -23 -1 -10 1 -23 6 -31 5 -8 3
-16 -5 -22 -10 -6 -11 -9 -1 -9 8 0 12 -19 13 -57 0 -58 5 -93 32 -231 7 -41
10 -75 5 -79 -16 -9 -23 7 -22 48 1 35 -1 39 -25 40 -17 1 -20 3 -8 6 13 4 17
15 17 59 l0 54 -47 0 c-27 0 -54 -4 -62 -9 -8 -5 -27 -3 -48 5 -19 8 -38 12
-43 9 -13 -8 0 -35 17 -35 12 0 13 -3 4 -14 -9 -11 -9 -16 0 -21 6 -4 14 -3
18 3 7 12 31 17 64 14 11 -1 17 -10 17 -26 0 -32 -6 -35 -79 -38 -46 -2 -64 1
-71 12 -7 10 -10 11 -10 3 0 -7 -9 -13 -20 -13 -31 0 -23 -26 13 -42 17 -8 26
-13 18 -11 -8 2 -11 -2 -7 -12 4 -10 -1 -15 -14 -15 -21 0 -26 -16 -12 -38 12
-18 34 -6 57 30 14 23 35 36 75 49 30 10 56 19 57 19 1 0 14 -11 28 -24 15
-14 32 -27 38 -29 6 -2 1 -13 -12 -26 -12 -12 -27 -35 -32 -51 -7 -20 -22 -32
-52 -44 -24 -9 -48 -16 -55 -16 -12 0 -16 -13 -6 -22 7 -8 101 17 118 31 7 6
16 7 20 3 4 -4 6 0 4 8 -2 8 7 19 18 24 12 5 26 21 31 35 9 23 11 24 18 7 5
-11 3 -21 -5 -26 -8 -5 -9 -9 -2 -11 7 -3 13 -56 16 -139 3 -74 8 -163 12
-197 l7 -62 -29 -6 c-16 -3 -42 -12 -57 -20 -16 -8 -40 -15 -53 -15 -13 0 -43
-9 -67 -19 -23 -11 -68 -21 -100 -24 -53 -5 -57 -4 -52 13 7 23 -26 30 -67 16
-30 -11 -37 -26 -12 -26 9 0 12 -5 8 -12 -4 -6 1 -17 11 -25 23 -16 5 -17 -29
-2 -33 15 -63 5 -46 -16 7 -8 23 -15 36 -15 20 0 24 -5 24 -30 l0 -30 60 0
c58 0 60 1 60 26 0 23 3 25 24 20 29 -7 56 2 56 18 0 11 53 23 193 42 38 5 47
3 47 -9 0 -9 -12 -18 -29 -22 -37 -8 -58 -30 -36 -39 8 -3 15 -10 15 -16 0 -6
-4 -9 -8 -6 -5 3 -22 1 -38 -4 -25 -8 -23 -9 21 -8 52 1 75 11 71 31 -1 7 2 2
8 -10 8 -19 18 -23 56 -23 l46 0 17 78 c10 42 17 84 17 93 0 8 9 34 20 57 11
22 20 46 20 52 0 5 5 10 10 10 19 0 10 42 -10 47 -20 5 -29 33 -10 33 13 0 13
53 1 65 -14 14 -17 176 -4 200 8 15 8 32 0 62 -8 32 -8 51 2 81 10 30 11 44 1
61 -9 17 -9 26 1 37 9 11 9 20 0 41 -6 14 -9 28 -6 31 3 3 5 0 5 -6 0 -7 5
-12 11 -12 6 0 8 7 5 16 -7 18 7 49 37 81 12 13 17 30 14 42 -3 14 5 30 24 51
16 16 29 34 29 40 0 5 6 10 14 10 9 0 12 9 10 27 -2 16 -1 22 2 15 7 -16 34 3
34 24 0 8 3 14 8 14 4 0 16 17 27 38 10 20 27 49 37 64 10 14 18 33 18 42 0
10 9 16 24 16 22 0 24 3 21 38 -3 33 -1 39 23 50 15 6 42 15 60 18 27 5 38 16
55 50 23 49 32 54 40 24 7 -28 87 -30 87 -2 1 16 32 62 43 62 3 0 8 -8 10 -18
4 -16 5 -16 6 1 0 9 5 17 10 17 13 0 22 -82 24 -216 2 -97 0 -114 -17 -133
-11 -11 -25 -21 -31 -21 -7 0 -16 -11 -19 -24 -3 -13 -17 -31 -31 -40 -16 -10
-25 -26 -25 -41 0 -14 -4 -25 -8 -25 -15 0 -72 -91 -72 -115 0 -14 -4 -25 -8
-25 -9 0 -72 -129 -72 -147 0 -14 -40 -85 -54 -95 -5 -3 -10 -24 -10 -45 -1
-21 -5 -41 -11 -45 -7 -5 -6 -14 2 -27 8 -13 9 -22 3 -26 -18 -11 -12 -55 8
-55 46 0 64 12 60 40 -3 23 1 29 26 38 22 9 27 15 19 23 -17 17 2 52 40 74 17
10 26 20 19 23 -7 2 -8 9 -3 20 5 9 14 29 20 45 6 15 17 27 26 27 8 0 15 7 15
15 0 9 9 25 20 37 10 11 22 34 25 49 4 16 24 47 46 70 21 22 39 45 39 51 0 6
9 8 20 5 22 -6 28 8 8 16 -7 2 -10 8 -5 12 15 17 32 -18 43 -93 8 -59 8 -79
-1 -87 -7 -6 -9 -18 -5 -29 11 -31 -23 -136 -44 -136 -6 0 -20 -13 -29 -30
-10 -16 -22 -30 -28 -30 -5 0 -9 -9 -9 -19 0 -11 -9 -23 -20 -26 -17 -5 -20
-12 -14 -39 6 -32 -13 -66 -37 -66 -5 0 -9 -7 -9 -15 0 -9 -12 -26 -27 -39
-22 -19 -25 -26 -15 -38 9 -12 7 -19 -13 -38 -14 -13 -25 -29 -25 -36 0 -7 -6
-17 -13 -21 -20 -12 -55 -76 -50 -91 3 -7 -8 -25 -24 -41 -38 -39 -73 -87 -73
-100 0 -6 -7 -11 -15 -11 -8 0 -15 -9 -15 -20 0 -11 7 -20 15 -20 24 0 20 -56
-5 -63 -11 -3 -20 -10 -20 -16 0 -7 42 -11 126 -11 110 0 129 2 143 18 9 10
24 21 34 25 13 5 17 18 17 57 0 27 -4 50 -10 50 -13 0 -13 37 1 42 6 2 12 37
14 78 3 57 12 92 35 142 16 37 30 74 30 83 0 8 8 20 18 26 12 7 17 20 15 33
-3 12 4 30 15 41 10 12 22 38 26 58 6 33 10 37 36 37 23 0 30 5 30 20 0 30 19
24 25 -8 4 -15 10 -45 15 -67 8 -31 6 -42 -5 -51 -8 -6 -15 -17 -15 -24 0 -9
3 -10 14 -1 11 9 13 1 13 -51 0 -35 3 -80 7 -100 4 -25 3 -38 -4 -38 -8 0 -8
-6 0 -21 6 -11 8 -33 5 -50 -4 -18 -3 -29 4 -29 6 0 11 7 11 15 0 8 5 15 10
15 13 0 13 -13 -1 -27 -8 -8 -5 -22 10 -51 12 -23 21 -50 21 -62 0 -11 5 -29
11 -39 9 -13 9 -26 1 -49 -9 -26 -7 -33 12 -51 l22 -21 1048 0 1048 0 -6 23
c-4 12 -9 34 -11 49 -2 14 -8 35 -14 45 -16 30 -31 85 -25 94 2 5 -3 20 -12
34 -9 14 -14 32 -11 40 4 8 0 18 -7 22 -19 12 -66 114 -66 144 0 15 -6 34 -14
42 -14 13 -39 85 -41 117 -1 8 -9 32 -18 52 -10 21 -16 41 -16 45 1 5 -8 30
-20 57 -13 27 -26 72 -30 102 -4 29 -12 59 -18 66 -6 7 -13 29 -14 48 -2 19
-7 37 -10 40 -4 3 -21 48 -39 100 -17 52 -38 105 -46 117 -8 12 -14 31 -14 41
0 10 -4 22 -9 27 -5 6 -28 55 -51 110 -24 55 -53 113 -64 130 -27 38 -36 53
-66 112 -14 26 -33 54 -42 61 -10 7 -18 19 -18 25 0 7 -14 26 -30 44 -17 18
-30 37 -30 42 0 6 -4 11 -10 11 -5 0 -12 11 -16 25 -3 14 -9 25 -13 25 -4 0
-20 21 -36 46 -16 25 -43 52 -59 60 -51 25 -98 52 -109 63 -6 6 -17 11 -25 11
-7 0 -33 14 -57 30 -24 17 -47 30 -52 30 -5 0 -16 9 -26 20 -9 11 -23 20 -32
20 -8 0 -19 9 -25 20 -8 14 -21 20 -45 20 -19 0 -35 3 -35 8 0 9 -72 32 -99
32 -11 0 -23 4 -26 10 -3 6 -14 10 -23 10 -9 0 -39 11 -67 25 -27 13 -60 25
-71 25 -12 0 -27 6 -33 14 -7 8 -20 12 -30 9 -11 -3 -21 2 -24 11 -4 9 -17 16
-31 16 -14 0 -27 4 -30 9 -3 5 -29 16 -58 26 -29 9 -55 20 -58 24 -3 3 -14 11
-25 17 -14 8 -20 22 -20 47 0 19 -3 39 -7 43 -5 4 -8 56 -8 114 0 108 -13 164
-45 196 -14 15 -85 20 -85 7 0 -5 -11 -13 -25 -19 -21 -10 -24 -10 -22 6 2 10
9 25 16 34 13 15 7 56 -9 56 -16 0 -18 43 -3 67 15 22 14 25 -3 37 -15 12 -16
18 -6 40 13 29 7 56 -14 56 -17 0 -18 22 -2 38 10 10 10 17 0 32 -15 25 -15
47 1 54 6 3 1 3 -13 -1 -20 -5 -23 -3 -14 8 6 8 14 26 18 42 5 23 3 27 -14 27
-20 0 -24 9 -20 43 1 10 -10 29 -25 43 -20 18 -24 28 -17 41 15 29 9 67 -13
78 -13 6 -19 19 -18 35 1 14 -1 32 -4 40 -3 8 -7 26 -9 39 -4 34 -36 74 -65
82 -23 7 -24 7 -1 8 28 1 28 18 1 48 -12 12 -22 35 -21 50 5 232 19 434 33
500 18 83 10 239 -21 428 -7 39 -12 77 -12 85 0 8 -6 32 -14 53 -8 20 -14 48
-14 61 0 14 -6 37 -14 53 -15 30 -32 89 -47 168 -12 65 -28 130 -44 180 -20
62 -68 179 -75 185 -4 3 -18 25 -30 50 -12 25 -26 47 -29 50 -4 3 -18 21 -31
40 -35 50 -53 70 -170 191 -58 60 -109 109 -113 109 -5 0 -42 27 -82 60 -40
33 -79 60 -85 60 -7 0 -25 11 -42 25 -16 14 -36 25 -44 25 -8 0 -32 11 -52 25
-20 14 -43 25 -50 25 -8 0 -26 6 -40 14 -63 33 -208 48 -327 34z m-135 -885
c115 -7 133 -10 145 -26 7 -9 21 -17 33 -17 11 0 34 -13 50 -30 32 -32 87 -41
109 -19 18 18 136 21 176 4 20 -8 38 -19 42 -25 3 -5 14 -10 25 -10 27 0 120
-50 131 -71 11 -22 10 -23 -81 -47 -41 -12 -94 -28 -117 -36 -22 -8 -53 -18
-68 -20 -15 -3 -35 -13 -44 -23 -10 -10 -41 -29 -69 -42 -33 -16 -52 -31 -52
-42 0 -15 -10 -16 -87 -12 -66 4 -94 10 -113 24 -88 68 -103 78 -111 74 -4 -3
-24 4 -44 15 -26 15 -56 21 -103 22 -39 0 -75 7 -87 14 -13 9 -49 14 -105 14
-54 0 -91 5 -98 12 -9 9 -15 9 -24 0 -12 -12 -48 -17 -48 -6 0 10 84 88 116
106 16 10 36 22 44 27 8 5 27 14 42 21 15 7 37 21 47 32 11 10 24 18 28 18 5
0 26 10 48 21 21 12 57 23 79 25 21 2 42 6 44 9 3 3 15 2 26 -2 12 -4 41 -8
66 -10z m-260 -453 c16 -11 34 -20 42 -20 7 0 21 -12 30 -28 14 -24 15 -30 2
-47 -13 -17 -24 -19 -82 -16 -114 6 -233 6 -322 0 -47 -3 -69 -4 -48 -2 20 2
39 10 41 17 4 10 -1 13 -16 10 -12 -2 -15 -1 -7 2 8 4 27 18 42 33 78 75 99
82 207 76 61 -4 91 -11 111 -25z m1020 -4 c0 -9 6 -16 14 -16 8 0 18 -5 22
-12 10 -17 -33 -48 -67 -48 -16 0 -29 -4 -29 -10 0 -6 -28 -10 -62 -10 -35 -1
-90 -7 -123 -15 -79 -19 -81 -19 -54 10 13 13 33 25 43 25 11 0 16 3 13 7 -8
7 91 69 119 75 11 2 43 5 72 6 42 3 52 0 52 -12z m15 -86 c-3 -5 -16 -10 -28
-9 -21 0 -21 1 -2 9 28 12 37 12 30 0z m-1472 -39 c-4 -4 -20 -12 -35 -19 -23
-9 -26 -9 -21 4 3 9 15 19 27 24 23 8 43 2 29 -9z m897 -12 c5 -6 6 -18 3 -26
-3 -9 3 -13 21 -13 36 0 33 -16 -5 -24 -45 -9 -152 -7 -167 2 -7 5 -11 15 -9
23 2 8 2 11 0 7 -3 -5 -9 -8 -15 -8 -6 0 -6 6 2 15 7 8 20 15 30 15 10 0 24 7
31 16 16 19 96 14 109 -7z m-594 -20 c-26 -6 -43 -6 -50 1 -7 7 6 10 40 9 l49
-1 -39 -9z m1029 1 c-3 -5 -14 -10 -23 -10 -15 0 -15 2 -2 10 20 13 33 13 25
0z m-1155 -15 c0 -8 -5 -15 -12 -15 -6 0 -19 -6 -27 -14 -9 -7 -27 -17 -41
-20 -19 -6 -22 -5 -10 3 13 10 13 12 0 22 -13 9 -12 10 3 5 10 -3 26 3 37 14
24 24 50 26 50 5z m1110 11 c0 -3 -4 -8 -10 -11 -5 -3 -10 -1 -10 4 0 6 5 11
10 11 6 0 10 -2 10 -4z m-1226 -45 c3 -5 -1 -12 -10 -15 -27 -10 -35 -7 -22 9
15 17 25 19 32 6z m643 -122 c-7 -79 -32 -140 -56 -131 -14 5 -14 4 -2 -11 8
-10 11 -20 7 -24 -3 -3 -6 -2 -6 4 0 6 -7 13 -15 16 -11 5 -12 1 -5 -18 11
-29 5 -51 -17 -59 -32 -13 -43 13 -17 39 9 9 13 19 9 23 -4 4 -10 1 -12 -6 -3
-7 -19 -20 -36 -28 l-31 -16 30 -14 c16 -8 20 -12 9 -9 -11 2 -33 7 -50 10
-28 5 -28 4 4 -8 40 -15 36 -20 -38 -37 -68 -16 -283 -8 -361 14 -82 23 -130
88 -130 178 0 28 17 47 29 32 3 -5 17 -10 31 -12 47 -5 58 -8 75 -22 23 -19
116 -34 215 -34 70 0 93 4 130 23 53 28 90 59 90 78 0 7 9 13 20 13 21 0 100
72 100 92 1 8 7 5 16 -7 12 -15 15 -35 11 -86z m-641 70 c3 -5 1 -9 -5 -9 -5
0 -16 -3 -25 -6 -11 -4 -16 0 -16 14 0 15 5 19 20 15 11 -3 23 -9 26 -14z
m1074 -32 c0 -7 9 -18 20 -25 17 -10 26 -10 50 3 17 9 30 20 30 25 0 16 27 12
33 -4 4 -11 1 -13 -11 -9 -11 3 -9 -1 6 -11 37 -28 28 -46 -23 -46 -25 0 -45
-4 -45 -10 0 -5 5 -10 10 -10 6 0 10 -6 10 -12 1 -30 188 -81 258 -71 17 3 57
2 86 -1 50 -7 55 -10 61 -37 4 -16 11 -29 16 -29 5 0 4 11 -1 26 -14 37 -12
40 9 15 11 -13 25 -20 31 -16 14 9 -6 -33 -26 -52 -17 -17 -21 -16 -26 5 -4
15 -19 20 -80 25 -90 8 -105 13 -113 38 -8 24 -36 24 -77 -1 -18 -11 -45 -20
-59 -20 -36 0 -42 -10 -16 -31 l22 -18 -45 -1 c-25 0 -56 -3 -70 -5 -14 -3
-20 -3 -13 1 26 12 -17 75 -46 67 -11 -3 -22 0 -25 6 -5 7 2 11 16 12 20 1 21
2 3 6 -27 7 -55 33 -55 51 0 12 -4 12 -20 -3 -22 -20 -22 -20 -37 9 -8 15 -7
23 3 34 8 7 17 25 20 40 10 46 16 58 21 45 3 -10 8 -9 20 2 18 18 63 20 63 2z
m-245 -28 c4 -6 5 -12 2 -15 -9 -9 -102 -9 -102 1 0 6 3 9 8 8 4 -2 7 2 7 7 0
13 77 13 85 -1z m-561 -45 c57 -8 59 -20 6 -29 -70 -12 -164 15 -97 28 37 7
43 7 91 1z m-394 -89 c25 -64 62 -129 80 -140 6 -3 8 -9 6 -13 -2 -4 6 -8 17
-9 44 -4 87 -15 87 -23 0 -11 52 -37 90 -45 17 -4 27 -11 24 -17 -5 -7 14 -9
56 -6 54 4 70 1 106 -19 53 -30 59 -45 34 -93 -25 -49 -25 -50 3 -50 12 0 38
14 57 30 19 16 40 30 46 30 6 0 17 -20 24 -45 8 -28 25 -55 43 -71 28 -24 36
-25 120 -22 l90 3 8 -30 c4 -16 10 -47 13 -67 7 -39 36 -55 36 -19 0 10 5 32
11 50 10 27 15 31 48 31 l37 0 13 -65 c7 -36 18 -65 25 -65 6 0 -14 -14 -44
-32 -30 -17 -56 -35 -58 -39 -6 -15 -20 -10 -50 21 -27 26 -33 28 -63 20 -18
-6 -60 -26 -92 -46 -51 -31 -62 -35 -83 -25 -13 6 -24 14 -24 18 0 5 -6 16
-14 25 -11 14 -19 16 -49 7 -21 -5 -37 -14 -37 -19 0 -6 -14 -10 -31 -10 -16
0 -28 -4 -25 -9 10 -16 -31 -51 -59 -51 -19 0 -26 -4 -22 -14 3 -8 -1 -20 -9
-26 -18 -16 -18 -22 4 -46 20 -21 22 -26 22 -51 0 -10 7 -26 14 -36 12 -16 17
-16 57 -3 74 24 129 29 129 11 0 -14 77 -95 92 -95 4 0 11 -18 14 -40 4 -24
12 -40 20 -40 8 0 14 -7 14 -15 0 -16 87 -58 102 -49 5 3 14 2 21 -3 7 -5 32
-10 55 -11 24 0 51 -7 60 -14 12 -10 16 -10 19 -1 3 8 10 9 21 4 9 -5 28 -13
42 -19 l25 -10 -36 -15 c-20 -9 -45 -14 -56 -11 -12 3 -24 1 -27 -5 -4 -6 -20
-11 -36 -11 -16 0 -32 -4 -35 -10 -3 -5 -17 -10 -31 -10 -15 0 -24 -6 -24 -16
0 -27 -27 -44 -72 -45 -24 -1 -49 -7 -57 -13 -21 -16 -78 -17 -92 0 -6 8 -24
14 -40 14 -17 0 -29 5 -29 13 0 7 -16 26 -35 42 -19 17 -35 35 -35 42 0 6 -10
19 -21 27 -19 13 -21 22 -17 65 3 29 1 51 -4 51 -6 0 -17 9 -27 21 -12 15 -30
21 -76 24 -90 5 -98 8 -101 40 -2 16 -10 35 -18 44 -15 14 -16 13 -16 -7 0
-19 -5 -22 -40 -22 -29 0 -40 4 -40 15 0 8 -7 15 -15 15 -9 0 -18 7 -21 15 -4
8 -15 15 -25 15 -13 0 -19 7 -19 21 0 11 -4 17 -10 14 -5 -3 -10 -15 -10 -25
0 -30 -27 -13 -33 20 -4 17 -15 31 -27 35 -11 3 -20 14 -20 24 0 9 -6 23 -12
29 -10 10 -10 15 2 23 11 8 12 12 3 16 -7 2 -13 15 -13 28 0 34 -10 55 -26 55
-10 0 -14 12 -14 40 0 22 5 40 10 40 6 0 4 11 -5 23 -8 13 -17 46 -20 73 -16
153 -24 337 -18 389 3 33 6 82 5 108 -2 33 2 47 10 46 34 -4 39 1 32 36 -8 42
11 75 31 53 7 -7 22 -40 35 -73z m946 45 c16 -6 40 -27 53 -48 14 -20 34 -47
45 -60 11 -12 21 -30 22 -38 3 -20 44 -64 59 -64 6 0 28 -16 49 -35 30 -28 35
-36 23 -41 -9 -3 -30 1 -46 9 -21 11 -31 12 -34 4 -2 -7 -9 -2 -16 11 -14 25
-61 31 -61 7 0 -8 -9 -15 -21 -15 -11 0 -30 -5 -42 -12 -12 -6 -69 -20 -127
-29 -58 -10 -131 -27 -164 -39 -32 -11 -60 -20 -62 -18 -6 6 19 93 30 103 6 6
30 25 53 43 25 19 56 60 78 100 41 75 91 132 115 132 10 0 30 -5 46 -10z m544
-130 c0 -5 -4 -10 -10 -10 -5 0 -10 5 -10 10 0 6 5 10 10 10 6 0 10 -4 10 -10z
m320 0 c0 -5 -5 -10 -11 -10 -5 0 -7 5 -4 10 3 6 8 10 11 10 2 0 4 -4 4 -10z
m-505 -40 l-30 -8 30 -1 c17 -1 37 -6 45 -11 22 -14 -49 -13 -91 2 -34 12 -34
12 -9 19 14 4 39 7 55 7 l30 0 -30 -8z m264 -205 c6 -3 11 -23 11 -44 0 -31
-5 -40 -27 -52 -16 -8 -31 -18 -34 -23 -4 -4 -16 -3 -27 3 -11 6 -34 11 -50
11 -35 0 -42 13 -42 77 l0 46 79 -6 c44 -3 84 -8 90 -12z m51 -45 c0 -5 -4
-10 -10 -10 -5 0 -10 5 -10 10 0 6 5 10 10 10 6 0 10 -4 10 -10z m-224 -95 c5
-12 10 -13 20 -4 10 8 17 7 29 -5 9 -9 12 -16 6 -16 -6 0 -11 -20 -11 -45 0
-32 -6 -52 -20 -67 -11 -12 -20 -28 -20 -35 0 -7 -8 -13 -19 -13 -15 0 -18 7
-15 43 1 23 1 34 -2 25 -7 -22 -27 -23 -44 -3 -7 8 -19 15 -26 15 -8 0 -14 6
-14 13 0 23 25 67 38 67 6 0 12 9 12 20 0 16 7 20 30 20 18 0 33 -6 36 -15z
m-419 -406 l28 -11 -25 -13 c-32 -18 -168 -17 -194 1 -25 17 -11 22 74 27 36
2 70 4 77 5 6 1 24 -3 40 -9z m1333 -69 c18 -12 2 -12 -25 0 -13 6 -15 9 -5 9
8 0 22 -4 30 -9z m-895 -20 c-3 -5 -13 -10 -21 -10 -8 0 -12 5 -9 10 3 6 13
10 21 10 8 0 12 -4 9 -10z m1148 -750 c3 -11 1 -23 -4 -26 -5 -3 -9 6 -9 20 0
31 6 34 13 6z m-2278 -32 c49 -18 56 -24 50 -42 -6 -19 -9 -34 -14 -83 -2 -25
-22 -13 -28 17 -3 17 -15 38 -27 48 -29 22 -58 67 -49 75 8 9 3 10 68 -15z
m1325 -98 c0 -5 -4 -10 -10 -10 -5 0 -10 5 -10 10 0 6 5 10 10 10 6 0 10 -4
10 -10z m-1131 -72 c34 -35 61 -68 61 -75 0 -7 5 -13 10 -13 6 0 10 -9 10 -20
0 -33 -28 -23 -49 18 -26 49 -89 122 -107 122 -8 0 -14 7 -14 15 0 30 29 14
89 -47z m1040 -52 c-2 -2 -15 -9 -29 -15 -24 -11 -24 -11 -6 3 16 13 49 24 35
12z m138 -18 c-3 -8 -6 -5 -6 6 -1 11 2 17 5 13 3 -3 4 -12 1 -19z m-227 -53
c0 -3 -7 -17 -16 -30 -23 -36 -39 -31 -17 5 15 27 33 40 33 25z m139 -4 c7 -5
10 -14 7 -20 -4 -6 0 -11 11 -11 14 0 15 -2 4 -9 -8 -5 -20 -7 -28 -4 -22 9
-43 -17 -43 -53 0 -38 -7 -42 -26 -16 -42 55 19 148 75 113z m-1409 -11 c0 -5
-9 -10 -20 -10 -11 0 -20 5 -20 10 0 6 9 10 20 10 11 0 20 -4 20 -10z m0 -50
c-24 -20 -26 -40 -5 -40 8 0 15 5 15 10 0 6 5 10 10 10 6 0 10 -11 10 -25 0
-16 -6 -25 -15 -25 -8 0 -15 -6 -15 -12 -1 -7 -9 3 -19 22 -11 22 -14 39 -8
47 5 7 5 18 1 24 -5 9 -2 10 9 6 10 -3 17 -2 17 4 0 6 5 7 10 4 7 -4 3 -14
-10 -25z m1206 -67 c-11 -11 -19 6 -11 24 8 17 8 17 12 0 3 -10 2 -21 -1 -24z
m-1142 -115 c17 -32 22 -63 8 -42 -4 6 -15 13 -24 17 -11 4 -18 17 -18 32 0
34 15 31 34 -7z m476 -38 c0 -5 -7 -16 -16 -25 -25 -24 -41 -2 -17 22 18 19
33 21 33 3z m-264 -8 c6 -4 13 -24 16 -45 3 -30 0 -41 -15 -48 -29 -16 -46 5
-42 54 1 23 3 43 4 45 2 5 26 1 37 -6z m-146 -12 c0 -5 -7 -10 -15 -10 -8 0
-15 5 -15 10 0 6 7 10 15 10 8 0 15 -4 15 -10z m1520 -14 c0 -3 -4 -8 -10 -11
-5 -3 -10 -1 -10 4 0 6 5 11 10 11 6 0 10 -2 10 -4z m-1490 -22 c0 -8 -4 -12
-10 -9 -5 3 -10 10 -10 16 0 5 5 9 10 9 6 0 10 -7 10 -16z m1423 -26 c5 -16
-38 -58 -59 -58 -9 0 -14 -7 -12 -18 3 -18 -36 -81 -59 -95 -7 -4 -13 -19 -13
-31 0 -13 -7 -26 -15 -30 -8 -3 -15 -18 -15 -33 0 -15 -12 -46 -25 -68 -14
-22 -25 -48 -25 -57 0 -10 -4 -18 -10 -18 -5 0 -10 -7 -10 -15 0 -8 -7 -15
-15 -15 -8 0 -15 -4 -15 -9 0 -5 7 -11 15 -15 19 -7 20 -26 1 -26 -7 0 -16
-14 -20 -30 -3 -17 -17 -42 -31 -56 -14 -14 -25 -33 -25 -42 0 -9 -11 -38 -25
-64 -14 -26 -25 -53 -25 -60 0 -7 -14 -27 -30 -45 -17 -18 -30 -38 -30 -46 0
-7 -3 -17 -7 -21 -5 -4 -8 -15 -9 -24 -3 -45 -5 -52 -14 -52 -5 0 -10 11 -10
24 0 14 -4 28 -10 31 -8 5 -8 103 1 130 1 6 -3 36 -10 68 -7 32 -11 104 -10
160 1 57 -1 109 -5 116 -4 6 -5 18 -2 26 5 13 104 81 135 93 22 8 124 84 134
99 4 7 15 13 23 13 8 0 12 5 9 10 -3 6 1 10 10 10 9 0 13 5 10 10 -3 6 -3 10
2 10 4 0 31 21 58 47 90 85 128 108 138 81z m320 -15 c-7 -2 -19 -2 -25 0 -7
3 -2 5 12 5 14 0 19 -2 13 -5z m39 -304 c-2 -45 -7 -78 -10 -73 -4 5 -16 9
-27 9 -18 0 -20 8 -23 63 -3 63 5 82 38 94 23 8 25 -3 22 -93z m-1452 -61 c0
-16 -3 -19 -11 -11 -6 6 -8 16 -5 22 11 17 16 13 16 -11z m510 -32 c0 -11 -19
-15 -25 -6 -3 5 1 10 9 10 9 0 16 -2 16 -4z m814 -11 c-4 -8 -10 -15 -15 -15
-5 0 -9 7 -9 15 0 8 7 15 15 15 9 0 12 -6 9 -15z m-1802 -137 c-9 -9 -12 -7
-12 12 0 19 3 21 12 12 9 -9 9 -15 0 -24z m-25 -30 c-3 -8 -6 -5 -6 6 -1 11 2
17 5 13 3 -3 4 -12 1 -19z m13 -68 c0 -5 -2 -10 -4 -10 -3 0 -8 5 -11 10 -3 6
-1 10 4 10 6 0 11 -4 11 -10z m-3 -137 c-3 -10 -5 -4 -5 12 0 17 2 24 5 18 2
-7 2 -21 0 -30z m23 -183 c0 -5 -4 -10 -10 -10 -5 0 -10 5 -10 10 0 6 5 10 10
10 6 0 10 -4 10 -10z m820 -330 c0 -5 -5 -10 -11 -10 -5 0 -7 5 -4 10 3 6 8
10 11 10 2 0 4 -4 4 -10z m1348 -419 c10 -6 9 -10 -7 -14 -14 -3 -21 0 -21 9
0 16 9 18 28 5z m22 -35 c0 -3 -4 -8 -10 -11 -5 -3 -10 -1 -10 4 0 6 5 11 10
11 6 0 10 -2 10 -4z m-1090 -136 c0 -5 -5 -10 -11 -10 -5 0 -7 5 -4 10 3 6 8
10 11 10 2 0 4 -4 4 -10z m-320 -80 c0 -5 -9 -10 -20 -10 -11 0 -20 5 -20 10
0 6 9 10 20 10 11 0 20 -4 20 -10z"/>
<path d="M3272 4555 c0 -16 2 -22 5 -12 2 9 2 23 0 30 -3 6 -5 -1 -5 -18z"/>
<path d="M2170 4320 c0 -5 5 -10 11 -10 5 0 7 5 4 10 -3 6 -8 10 -11 10 -2 0
-4 -4 -4 -10z"/>
<path d="M2261 4119 c9 -17 13 -19 19 -8 11 16 4 29 -16 29 -12 0 -13 -4 -3
-21z"/>
<path d="M2160 4120 c0 -5 7 -10 15 -10 8 0 15 5 15 10 0 6 -7 10 -15 10 -8 0
-15 -4 -15 -10z"/>
<path d="M2078 3954 c2 -44 6 -81 8 -83 2 -2 11 0 21 4 17 8 17 8 -1 13 -16 3
-18 11 -14 52 3 27 0 57 -7 70 -10 19 -11 9 -7 -56z"/>
<path d="M2452 3798 c6 -18 28 -21 28 -4 0 9 -7 16 -16 16 -9 0 -14 -5 -12
-12z"/>
<path d="M2320 3765 c0 -11 11 -15 40 -15 22 0 40 -4 40 -10 0 -5 -8 -10 -17
-10 -14 0 -15 -2 -4 -12 11 -10 14 -10 18 0 7 19 20 14 26 -9 6 -24 30 -21 35
4 2 10 -5 17 -20 19 -13 2 -21 6 -18 9 3 3 -3 13 -12 22 -21 22 -88 23 -88 2z"/>
<path d="M2320 3634 c0 -8 5 -12 10 -9 6 3 10 10 10 16 0 5 -4 9 -10 9 -5 0
-10 -7 -10 -16z"/>
<path d="M2592 3413 c24 -3 38 -10 41 -21 3 -12 5 -11 6 6 1 20 -3 22 -41 20
l-43 -1 37 -4z"/>
<path d="M4216 1771 c-3 -4 3 -16 14 -26 19 -18 20 -17 20 8 0 26 -22 38 -34
18z"/>
<path d="M2830 1554 c0 -9 5 -14 12 -12 18 6 21 28 4 28 -9 0 -16 -7 -16 -16z"/>
<path d="M2860 1500 c0 -5 9 -10 21 -10 11 0 17 5 14 10 -3 6 -13 10 -21 10
-8 0 -14 -4 -14 -10z"/>
<path d="M6300 1490 c-13 -8 -12 -10 3 -10 9 0 17 5 17 10 0 12 -1 12 -20 0z"/>
<path d="M2800 1469 c0 -15 5 -20 22 -17 34 5 37 38 4 38 -20 0 -26 -5 -26
-21z"/>
<path d="M3985 1475 c21 -17 37 -15 43 3 2 8 -8 12 -30 12 -31 -1 -32 -1 -13
-15z"/>
<path d="M2760 1389 c0 -11 5 -17 10 -14 6 3 10 13 10 21 0 8 -4 14 -10 14 -5
0 -10 -9 -10 -21z"/>
<path d="M3244 1126 c-18 -14 -18 -15 6 -24 30 -11 64 -1 68 22 4 21 -46 22
-74 2z"/>
<path d="M2931 997 c-25 -28 -26 -36 -4 -52 15 -12 14 -15 -15 -45 -35 -34
-40 -50 -18 -50 9 0 12 -7 9 -20 -4 -14 2 -23 23 -32 41 -18 52 -30 46 -51 -4
-14 -7 -16 -13 -5 -14 23 -31 -5 -20 -33 6 -18 5 -30 -5 -44 -8 -10 -14 -27
-14 -37 0 -11 -7 -18 -20 -18 -15 0 -20 -7 -20 -29 0 -24 -3 -28 -20 -24 -14
4 -20 0 -20 -11 0 -9 8 -16 20 -16 12 0 20 -7 20 -16 0 -10 -6 -14 -14 -11
-24 10 -72 -44 -68 -75 4 -34 19 -36 33 -4 11 24 44 36 100 36 16 0 29 5 29
10 0 6 13 10 29 10 17 0 31 6 35 16 4 10 14 14 26 11 11 -3 23 -1 26 4 3 5 12
9 21 9 15 0 42 27 43 41 0 4 -7 9 -15 13 -10 4 -14 -1 -12 -17 3 -30 -27 -29
-31 1 -2 15 -9 22 -20 20 -31 -5 -42 12 -42 62 0 45 3 50 25 56 24 6 37 44 15
44 -5 0 -10 7 -10 15 0 8 5 15 10 15 15 0 12 16 -5 34 -19 19 -19 26 1 41 15
11 15 12 -5 18 -11 3 -21 1 -21 -4 0 -5 -12 -9 -26 -9 -25 0 -26 2 -20 44 4
27 3 47 -4 51 -5 3 -10 19 -10 35 0 39 -13 44 -39 17z m109 -247 c0 -11 -2
-20 -4 -20 -2 0 -6 9 -9 20 -3 11 -1 20 4 20 5 0 9 -9 9 -20z"/>
<path d="M2622 776 c0 -52 4 -114 8 -138 6 -29 4 -48 -3 -57 -9 -11 -9 -15 1
-18 7 -3 12 -23 12 -49 0 -25 4 -43 8 -40 16 10 -2 396 -19 396 -4 0 -7 -43
-7 -94z"/>
<path d="M3113 839 c-18 -18 7 -40 30 -27 15 7 16 12 6 24 -14 17 -21 18 -36
3z"/>
<path d="M3040 675 c0 -8 4 -15 9 -15 5 0 11 7 15 15 3 9 0 15 -9 15 -8 0 -15
-7 -15 -15z"/>
<path d="M3040 626 c0 -9 7 -19 15 -23 23 -8 25 0 4 21 -17 18 -19 18 -19 2z"/>
<path d="M3225 630 c3 -5 8 -10 11 -10 2 0 4 5 4 10 0 6 -5 10 -11 10 -5 0 -7
-4 -4 -10z"/>
<path d="M2530 560 c0 -5 5 -10 10 -10 6 0 10 5 10 10 0 6 -4 10 -10 10 -5 0
-10 -4 -10 -10z"/>
<path d="M2560 560 c0 -5 7 -10 15 -10 8 0 15 5 15 10 0 6 -7 10 -15 10 -8 0
-15 -4 -15 -10z"/>
<path d="M3360 553 c0 -13 5 -23 10 -23 13 0 13 11 0 30 -8 12 -10 11 -10 -7z"/>
<path d="M2345 499 c-4 -6 -5 -13 -2 -16 7 -7 27 6 27 18 0 12 -17 12 -25 -2z"/>
<path d="M3320 495 c-8 -9 -8 -15 -2 -15 18 0 42 12 42 21 0 14 -26 10 -40 -6z"/>
<path d="M6665 500 c3 -5 10 -10 16 -10 5 0 9 5 9 10 0 6 -7 10 -16 10 -8 0
-12 -4 -9 -10z"/>
<path d="M3680 433 c0 -12 -3 -30 -6 -40 -5 -13 -2 -12 10 4 13 17 14 27 7 40
-9 16 -10 16 -11 -4z"/>
<path d="M6653 423 c9 -2 23 -2 30 0 6 3 -1 5 -18 5 -16 0 -22 -2 -12 -5z"/>
<path d="M3020 380 c-12 -7 -12 -12 -3 -21 15 -15 26 -7 21 15 -2 11 -7 13
-18 6z"/>
<path d="M2845 335 c-22 -8 -41 -15 -42 -15 -2 0 -3 -16 -3 -35 0 -41 -26 -75
-57 -75 -39 0 -25 -18 22 -28 46 -10 120 5 120 25 1 4 6 17 11 28 6 11 14 32
18 48 4 18 13 27 26 27 11 0 20 6 20 14 0 8 -10 14 -22 13 -13 0 -30 3 -38 6
-8 3 -33 0 -55 -8z"/>
<path d="M2650 305 c-10 -12 -10 -15 4 -15 9 0 16 7 16 15 0 8 -2 15 -4 15 -2
0 -9 -7 -16 -15z"/>
<path d="M3370 310 c0 -5 7 -10 15 -10 8 0 15 5 15 10 0 6 -7 10 -15 10 -8 0
-15 -4 -15 -10z"/>
<path d="M2750 300 c0 -5 7 -10 16 -10 8 0 12 5 9 10 -3 6 -10 10 -16 10 -5 0
-9 -4 -9 -10z"/>
<path d="M3017 303 c-3 -5 1 -14 9 -21 12 -11 14 -9 14 8 0 20 -14 27 -23 13z"/>
<path d="M3362 270 c0 -14 2 -19 5 -12 2 6 2 18 0 25 -3 6 -5 1 -5 -13z"/>
<path d="M2409 219 c-10 -6 -11 -9 -1 -9 6 0 12 -7 12 -15 0 -12 12 -14 68
-11 37 2 78 4 91 5 23 1 23 2 7 20 -14 15 -31 19 -90 19 -40 0 -80 -4 -87 -9z"/>
<path d="M2320 194 c0 -8 5 -12 10 -9 6 3 10 10 10 16 0 5 -4 9 -10 9 -5 0
-10 -7 -10 -16z"/>
<path d="M3035 199 c-11 -17 1 -21 15 -4 8 9 8 15 2 15 -6 0 -14 -5 -17 -11z"/>
<path d="M2655 104 c-4 -32 -3 -49 5 -54 21 -13 -10 -24 -100 -36 l-85 -12
123 -1 122 -1 0 35 c0 19 -4 35 -10 35 -5 0 -10 12 -10 26 0 22 -20 54 -33 54
-3 0 -8 -21 -12 -46z"/>
<path d="M2745 140 c-3 -5 1 -10 10 -10 9 0 13 5 10 10 -3 6 -8 10 -10 10 -2
0 -7 -4 -10 -10z"/>
<path d="M2625 70 c3 -5 8 -10 11 -10 2 0 4 5 4 10 0 6 -5 10 -11 10 -5 0 -7
-4 -4 -10z"/>
<path d="M3276 35 c4 -8 12 -15 20 -15 20 0 17 7 -6 20 -16 9 -18 8 -14 -5z"/>
<path d="M2866 15 c-3 -9 0 -15 9 -15 16 0 20 16 6 24 -5 3 -11 -1 -15 -9z"/>
<path d="M2956 21 c-4 -7 -5 -15 -2 -18 9 -9 19 4 14 18 -4 11 -6 11 -12 0z"/>
<path d="M4168 3 c6 -2 18 -2 25 0 6 3 1 5 -13 5 -14 0 -19 -2 -12 -5z"/>
</g>
</svg>
